<?xml version="1.0" standalone="no"?><!DOCTYPE svg PUBLIC "-//W3C//DTD SVG 1.1//EN" "http://www.w3.org/Graphics/SVG/1.1/DTD/svg11.dtd"><svg t="1589624423066" class="icon" viewBox="0 0 1024 1024" version="1.1" xmlns="http://www.w3.org/2000/svg" p-id="17488" xmlns:xlink="http://www.w3.org/1999/xlink" width="200" height="200"><defs><style type="text/css"></style></defs><path d="M108.8 441.6C64 448 32 460.8 0 467.2c0 25.6 0 57.6 0 83.2l0 6.4C32 569.6 64 576 108.8 582.4c0 25.6 6.4 51.2 19.2 70.4-32 25.6-57.6 51.2-76.8 76.8 12.8 25.6 25.6 57.6 44.8 76.8 25.6-6.4 64-19.2 102.4-32 12.8 19.2 32 38.4 51.2 51.2-12.8 38.4-25.6 76.8-32 102.4 25.6 19.2 51.2 32 83.2 44.8C320 960 345.6 928 371.2 896c25.6 6.4 44.8 12.8 70.4 19.2C448 960 460.8 992 467.2 1024c25.6 0 57.6 0 83.2 0l6.4 0c6.4-25.6 19.2-64 25.6-102.4 25.6-6.4 51.2-12.8 70.4-19.2 25.6 32 51.2 57.6 76.8 76.8 25.6-12.8 57.6-25.6 76.8-44.8-6.4-25.6-19.2-64-32-102.4 19.2-12.8 38.4-32 51.2-51.2 38.4 12.8 76.8 25.6 102.4 32 19.2-25.6 32-51.2 44.8-83.2C960 704 928 678.4 896 652.8c6.4-25.6 12.8-44.8 19.2-70.4C960 576 992 563.2 1024 556.8c0-25.6 0-57.6 0-83.2L1024 467.2c-25.6-6.4-64-19.2-102.4-25.6-6.4-25.6-12.8-51.2-19.2-70.4C934.4 345.6 960 320 979.2 294.4c-12.8-25.6-25.6-57.6-44.8-76.8-25.6 6.4-64 19.2-102.4 32-12.8-19.2-32-38.4-51.2-51.2 12.8-38.4 25.6-76.8 32-102.4-25.6-19.2-51.2-32-83.2-44.8C704 64 678.4 96 652.8 128 627.2 115.2 608 108.8 582.4 108.8 576 64 563.2 32 556.8 0 531.2 0 499.2 0 473.6 0L467.2 0C454.4 32 448 64 441.6 108.8 416 108.8 390.4 115.2 371.2 128 339.2 96 320 70.4 294.4 44.8 268.8 64 243.2 76.8 217.6 96c6.4 25.6 19.2 64 32 102.4C230.4 211.2 211.2 230.4 198.4 249.6 153.6 236.8 121.6 224 96 217.6 76.8 243.2 57.6 268.8 44.8 300.8 64 320 89.6 345.6 128 371.2 115.2 396.8 108.8 416 108.8 441.6L108.8 441.6zM486.4 217.6c160-12.8 307.2 108.8 320 268.8 12.8 160-108.8 307.2-268.8 320-160 12.8-307.2-108.8-320-268.8C204.8 371.2 326.4 230.4 486.4 217.6L486.4 217.6z" p-id="17489" fill="#ffffff"></path><path d="M390.4 505.6c0 19.2 0 32 6.4 51.2 6.4 12.8 12.8 32 25.6 44.8C435.2 608 448 620.8 460.8 627.2 480 633.6 492.8 640 512 640s32 0 51.2-6.4C576 627.2 588.8 614.4 601.6 608c12.8-12.8 25.6-25.6 32-38.4 6.4-12.8 12.8-32 12.8-51.2 0-19.2 0-32-6.4-51.2C633.6 454.4 620.8 441.6 614.4 428.8 601.6 416 588.8 403.2 569.6 396.8 556.8 390.4 537.6 384 524.8 384 505.6 384 492.8 384 473.6 390.4 460.8 396.8 441.6 403.2 435.2 416 422.4 428.8 409.6 441.6 403.2 454.4 396.8 473.6 390.4 486.4 390.4 505.6L390.4 505.6z" p-id="17490" fill="#ffffff"></path></svg>